# xmcd
#
# Track frame offsets: 
#        150
#        17068
#        34776
#        53545
#        75603
#        98813
#        116323
#        130271
#        148256
#        171096
#
# Disc length: 2431 seconds
#
# Revision: 0
# Processed by: cddbd v1.5.2PL0 Copyright (c) Steve Scherf et al.
# Submitted via: ExactAudioCopyFreeDBPlugin 1.0
#
DISCID=7a097d0a
DTITLE=Joss Stone - LP1
DYEAR=2011
DGENRE=Rhythmic Soul
TTITLE0=Newborn
TTITLE1=Karma
TTITLE2=Don't Star Lying to me Now
TTITLE3=Last One to Know
TTITLE4=Drive All Night
TTITLE5=Cry Myself to Sleep
TTITLE6=Somehow
TTITLE7=Landlord
TTITLE8=Boat Yard
TTITLE9=Take Good Care
EXTD=
EXTT0=
EXTT1=
EXTT2=
EXTT3=
EXTT4=
EXTT5=
EXTT6=
EXTT7=
EXTT8=
EXTT9=
PLAYORDER=
